PathFileType	4	(X/Y/Z)	/Users/visionmauri/1_6_1_f_Sports2D/1_6_1_f_Sports2D_m_person00.trc
DataRate	CameraRate	NumFrames	NumMarkers	Units	OrigDataRate	OrigDataStartFrame	OrigNumFrames
30.0	30.0	8	22	m	30.0	335	447
Frame#	Time	Hip			RHip			RKnee			RAnkle			RBigToe			RSmallToe			RHeel			LHip			LKnee			LAnkle			LBigToe			LSmallToe			LHeel			Neck			Head			Nose			RShoulder			RElbow			RWrist			LShoulder			LElbow			LWrist			
		X1	Y1	Z1	X2	Y2	Z2	X3	Y3	Z3	X4	Y4	Z4	X5	Y5	Z5	X6	Y6	Z6	X7	Y7	Z7	X8	Y8	Z8	X9	Y9	Z9	X10	Y10	Z10	X11	Y11	Z11	X12	Y12	Z12	X13	Y13	Z13	X14	Y14	Z14	X15	Y15	Z15	X16	Y16	Z16	X17	Y17	Z17	X18	Y18	Z18	X19	Y19	Z19	X20	Y20	Z20	X21	Y21	Z21	X22	Y22	Z22
335	11.191704035874439	0.5879266181548263	0.8204910963323948	0.0301	0.5097521455789814	0.759082005681465	0.0301	0.6613263341295873	0.4521097397641214	0.129	0.8321357981739561	0.11111756383412882	0.023	0.9077555733419242	7.311694102115329e-05	0.2179	0.8491347812305572	-0.015245788540281021	0.1804	0.8592320670169201	0.06964806849615017	-0.0119	0.6835250258240061	0.8377256220845208	0.0301	0.7764170554517276	0.5595994825960001	0.129	0.8648198539631107	0.26023955234887014	0.023	0.9272105906804182	0.12145315415375005	0.2179	0.9588798797211633	0.15836093828087397	0.1804	0.8663754619171148	0.2223955426752371	-0.0119	0.39927804611280426	1.3133030071004386	0.0008	0.31545977990550617	1.5293623106926437	0.0655	0.3835315698142029	1.3512167918277755	0.1076	0.2500852198222469	1.191917415000797	-0.01275	0.2806445461244767	0.9830425659753783	0.0702	0.3074057713897702	0.7802763914860646	0.1076	0.5913464133249149	1.3278730705986552	-0.01275	0.7389262080249094	1.1323934749785778	0.0702	0.7958231464923091	1.0213273988090277	0.1076
336	11.225112107623318	0.5841939921832258	0.8211227402545825	0.0301	0.5057289327714307	0.7583882950872416	0.0301	0.6609008626246469	0.45249165278323095	0.129	0.8331332757002077	0.10734741439164536	0.023	0.9076424671823975	-0.0013303696823539117	0.2179	0.8505186875611014	-0.018892015486260714	0.1804	0.8599154598071714	0.06383572668513446	-0.0119	0.679422344227307	0.8366361462424097	0.0301	0.774768428529551	0.5562333512833146	0.129	0.8665259195835788	0.25935721069104783	0.023	0.9273281674511107	0.1176484586264929	0.2179	0.9604815498428181	0.15573576597777603	0.1804	0.86458650932867	0.22489038308399897	-0.0119	0.3937939216314535	1.314114575927469	0.0008	0.3107402646660664	1.5312670122224041	0.0655	0.37824487339091445	1.3506387737990395	0.1076	0.24394618704856808	1.1939433005113413	-0.01275	0.27436711081702375	0.98628980597902	0.0702	0.30369713326904835	0.7818131565923169	0.1076	0.5862080200689008	1.3302426089148018	-0.01275	0.7371381836007593	1.1364471702642864	0.0702	0.8012901799105003	1.0037176373046686	0.1076
337	11.258520179372196	0.5808168858923493	0.8206747895085542	0.0301	0.5020894745185666	0.7585456301398921	0.0301	0.6589451126387033	0.45288202980652104	0.129	0.8335236267325848	0.10502509098028072	0.023	0.9093960153712536	-0.0013774134069261387	0.2179	0.8512674999918134	-0.020757211696090135	0.1804	0.8586943250853597	0.06041695986458469	-0.0119	0.6761887179788293	0.8362414200163153	0.0301	0.7737702423820014	0.5563614570343302	0.129	0.8693050872703598	0.25657750073370855	0.023	0.9292535435424042	0.11141054797243907	0.2179	0.9639036798599128	0.14932529748741818	0.1804	0.8652454276232533	0.21855606544152958	-0.0119	0.3876337657283274	1.3168381090243537	0.0008	0.3056135686642844	1.5328276898398299	0.0655	0.3705685813709576	1.3530238797529628	0.1076	0.2370989098282596	1.1964887028129738	-0.01275	0.26768786935821187	0.9881720335449007	0.0702	0.3000291099038472	0.7809729214278781	0.1076	0.5802896048936473	1.3335298208150161	-0.01275	0.7335036511628785	1.1379059732957844	0.0702	0.7964803926208877	1.0109140795542038	0.1076
338	11.291928251121076	0.5781944531287826	0.8201236400869748	0.0301	0.4987581604273072	0.7592618899069492	0.0301	0.6560219671940661	0.45284007532983056	0.129	0.8329985323820135	0.1048873728667233	0.023	0.9125627867274312	-0.0005003686869379451	0.2179	0.8523072539277028	-0.020989779522576375	0.1804	0.8563273960024528	0.060505861248518915	-0.0119	0.6741507620968964	0.8381664262062369	0.0301	0.7715174842487312	0.5595998705767664	0.129	0.8706240394399846	0.25788661857348194	0.023	0.9296779459981921	0.11081586149773548	0.2179	0.9656738776801024	0.1480198092637213	0.1804	0.8667072777169423	0.21400092813291827	-0.0119	0.38198378253670856	1.3208885227240943	0.0008	0.30007955019985444	1.5361197831412385	0.0655	0.36192016033021535	1.3585912582327413	0.1076	0.23041622258916633	1.1990708762660764	-0.01275	0.26155262627345277	0.988078946035079	0.0702	0.29550499433283056	0.7779726225882622	0.1076	0.5736992658763987	1.3374878487382558	-0.01275	0.7276703863978765	1.1355328228681303	0.0702	0.7833047626675375	1.0368088627442495	0.1076
339	11.325336322869955	0.5756665306141506	0.8217162149736953	0.0301	0.49524093088265847	0.7601797485848637	0.0301	0.6536243107513658	0.4513313195315141	0.129	0.8319599066794044	0.10619671847585502	0.023	0.9141694798120565	0.00014495360849373909	0.2179	0.8532063574789426	-0.020352713167189857	0.1804	0.8550130226215945	0.06225632146351124	-0.0119	0.6717676589227474	0.8422937138830386	0.0301	0.7692953655792212	0.5627494401634141	0.129	0.8702376944929605	0.2627108582970716	0.023	0.9276375833116468	0.11784638097385182	0.2179	0.963629227659921	0.15639736737862542	0.1804	0.8679130430967009	0.21732443681887842	-0.0119	0.3772132081161418	1.3241403333958917	0.0008	0.29524136195144696	1.5411307531290392	0.0655	0.356521466196806	1.3640081931378063	0.1076	0.2250596127381568	1.2015211811711348	-0.01275	0.25655418315516193	0.9856330169280246	0.0702	0.29010941171012056	0.7732741097491852	0.1076	0.566493526709248	1.3409094142212679	-0.01275	0.7209362630649189	1.1324647802817884	0.0702	0.7653956517824737	1.0707791360014385	0.1076
340	11.358744394618833	0.5731571959297062	0.8253672460132484	0.0301	0.49284378476570806	0.7607958858153933	0.0301	0.6531948173424336	0.4481350462404768	0.129	0.8310666448466643	0.10822697807124249	0.023	0.9128178390664167	0.00079170755593719	0.2179	0.8526432975294133	-0.018408455935772425	0.1804	0.8550771412286424	0.06463041850742547	-0.0119	0.6686874766154154	0.8463848087247279	0.0301	0.7706632797198832	0.5647874942528118	0.129	0.8694395038480869	0.2668426228621761	0.023	0.9255118821000948	0.12610425123574193	0.2179	0.9601539498089222	0.16696159645433342	0.1804	0.8696784976795223	0.22280149936910476	-0.0119	0.37305958903148845	1.326002375116741	0.0008	0.2907985293183344	1.546423820780607	0.0655	0.35431704367601596	1.3692791707062837	0.1076	0.22118566902679504	1.203685784163251	-0.01275	0.2518485325905687	0.9800126551882415	0.0702	0.28537055777566944	0.7679339222019992	0.1076	0.5605801287702435	1.341900308687528	-0.01275	0.7164595258703045	1.1314938982320606	0.0702	0.7489118129602165	1.0996972704340777	0.1076
341	11.392152466367712	0.5710956470108294	0.8284917106560649	0.0301	0.4925483853339002	0.7613885477020588	0.0301	0.6541610723678818	0.4456181845586435	0.129	0.830099999329158	0.11050864048388441	0.023	0.910245911856169	0.0022531931538507842	0.2179	0.8510561986384336	-0.015553517458261173	0.1804	0.8545368771569144	0.06745296590813123	-0.0119	0.6664512847091973	0.8485260084581286	0.0301	0.7756241283322975	0.567176204167369	0.129	0.8682993329689711	0.26968197861079873	0.023	0.9252665149165111	0.13035932128056701	0.2179	0.9591699016000163	0.1702038741546649	0.1804	0.8715700439759227	0.2262915514233139	-0.0119	0.36888271315668747	1.3276072532720982	0.0008	0.2858504423469229	1.551641260402844	0.0655	0.35164318163386626	1.376814289747651	0.1076	0.21777432043056535	1.204394701857862	-0.01275	0.24663838871922933	0.97201319396291	0.0702	0.28278339891456744	0.7642844923166623	0.1076	0.5571384162603717	1.3410299933745606	-0.01275	0.7154395378903393	1.1311557490902073	0.0702	0.7357981319854935	1.120170314066952	0.1076
342	11.42556053811659	0.5694706140872846	0.8289138494194647	0.0301	0.49288174853552635	0.7625700383889907	0.0301	0.6543451421210223	0.44537577341657286	0.129	0.8287710645983324	0.11191152749857987	0.023	0.9080578173688585	0.003600042292751526	0.2179	0.8497999668756375	-0.013522009850745855	0.1804	0.8535238927310229	0.06911590282345176	-0.0119	0.6657136145483317	0.8492196032919376	0.0301	0.7795952983170734	0.5696956138887806	0.129	0.8670715183624158	0.27214275396933185	0.023	0.9268746287190195	0.1309299711780535	0.2179	0.9623100910182257	0.16650721153690673	0.1804	0.8716642838622279	0.22978611815453956	-0.0119	0.36390671362383076	1.3295189654999382	0.0008	0.2807083031654815	1.5559377496679954	0.0655	0.347995032099353	1.3845031741267309	0.1076	0.21424180717057317	1.20386712608404	-0.01275	0.2410134525237586	0.9654320033350071	0.0702	0.2817712230030105	0.7627983200619725	0.1076	0.5541894723448288	1.3412022806481352	-0.01275	0.7142554896714397	1.1299490827054721	0.0702	0.7244465716909241	1.1349761520999697	0.1076
